<svg xmlns="http://www.w3.org/2000/svg">

<symbol id="facebook" viewBox="0 0 155.139 155.139">
    <g>
        <path id="f_1_" style="fill:#010002;" d="M89.584,155.139V84.378h23.742l3.562-27.585H89.584V39.184
            c0-7.984,2.208-13.425,13.67-13.425l14.595-0.006V1.08C115.325,0.752,106.661,0,96.577,0C75.52,0,61.104,12.853,61.104,36.452
            v20.341H37.29v27.585h23.814v70.761H89.584z"/>
    </g>
</symbol>

<symbol id="instagram" viewBox="0 0 169.063 169.063">
    <g>
        <path d="M122.406,0H46.654C20.929,0,0,20.93,0,46.655v75.752c0,25.726,20.929,46.655,46.654,46.655h75.752
            c25.727,0,46.656-20.93,46.656-46.655V46.655C169.063,20.93,148.133,0,122.406,0z M154.063,122.407
            c0,17.455-14.201,31.655-31.656,31.655H46.654C29.2,154.063,15,139.862,15,122.407V46.655C15,29.201,29.2,15,46.654,15h75.752
            c17.455,0,31.656,14.201,31.656,31.655V122.407z"/>
        <path d="M84.531,40.97c-24.021,0-43.563,19.542-43.563,43.563c0,24.02,19.542,43.561,43.563,43.561s43.563-19.541,43.563-43.561
            C128.094,60.512,108.552,40.97,84.531,40.97z M84.531,113.093c-15.749,0-28.563-12.812-28.563-28.561
            c0-15.75,12.813-28.563,28.563-28.563s28.563,12.813,28.563,28.563C113.094,100.281,100.28,113.093,84.531,113.093z"/>
        <path d="M129.921,28.251c-2.89,0-5.729,1.17-7.77,3.22c-2.051,2.04-3.23,4.88-3.23,7.78c0,2.891,1.18,5.73,3.23,7.78
            c2.04,2.04,4.88,3.22,7.77,3.22c2.9,0,5.73-1.18,7.78-3.22c2.05-2.05,3.22-4.89,3.22-7.78c0-2.9-1.17-5.74-3.22-7.78
            C135.661,29.421,132.821,28.251,129.921,28.251z"/>
    </g>
</symbol>

<symbol id="mail" viewBox="0 0 479.058 479.058">
<path d="M424.3,57.75H59.1c-32.6,0-59.1,26.5-59.1,59.1v249.6c0,32.6,26.5,59.1,59.1,59.1h365.1c32.6,0,59.1-26.5,59.1-59.1 v-249.5C483.4,84.35,456.9,57.75,424.3,57.75z M456.4,366.45c0,17.7-14.4,32.1-32.1,32.1H59.1c-17.7,0-32.1-14.4-32.1-32.1v-249.5 c0-17.7,14.4-32.1,32.1-32.1h365.1c17.7,0,32.1,14.4,32.1,32.1v249.5H456.4z"/>
<path d="M304.8,238.55l118.2-106c5.5-5,6-13.5,1-19.1c-5-5.5-13.5-6-19.1-1l-163,146.3l-31.8-28.4c-0.1-0.1-0.2-0.2-0.2-0.3 c-0.7-0.7-1.4-1.3-2.2-1.9L78.3,112.35c-5.6-5-14.1-4.5-19.1,1.1c-5,5.6-4.5,14.1,1.1,19.1l119.6,106.9L60.8,350.95 c-5.4,5.1-5.7,13.6-0.6,19.1c2.7,2.8,6.3,4.3,9.9,4.3c3.3,0,6.6-1.2,9.2-3.6l120.9-113.1l32.8,29.3c2.6,2.3,5.8,3.4,9,3.4 c3.2,0,6.5-1.2,9-3.5l33.7-30.2l120.2,114.2c2.6,2.5,6,3.7,9.3,3.7c3.6,0,7.1-1.4,9.8-4.2c5.1-5.4,4.9-14-0.5-19.1L304.8,238.55z"/>

</symbol>

<symbol id="facebookk" viewBox="0 0 24 24">
<path d="m15.997 3.985h2.191v-3.816c-.378-.052-1.678-.169-3.192-.169-3.159 0-5.323 1.987-5.323 5.639v3.361h-3.486v4.266h3.486v10.734h4.274v-10.733h3.345l.531-4.266h-3.877v-2.939c.001-1.233.333-2.077 2.051-2.077z"/>
</symbol>

<symbol id="tel" viewBox="0 0 512 512">
<g>
		<path d="M298.667,25.6h-85.333c-4.71,0-8.533,3.823-8.533,8.533c0,4.71,3.823,8.533,8.533,8.533h85.333
			c4.71,0,8.533-3.823,8.533-8.533C307.2,29.423,303.377,25.6,298.667,25.6z"/>
	</g>
</g>
<g>
	<g>
		<path d="M358.4,25.6h-8.533c-4.71,0-8.533,3.823-8.533,8.533c0,4.71,3.823,8.533,8.533,8.533h8.533
			c4.71,0,8.533-3.823,8.533-8.533C366.933,29.423,363.11,25.6,358.4,25.6z"/>
	</g>
</g>
<g>
	<g>
		<path d="M266.598,435.2H245.41c-12.979,0-23.543,10.564-23.543,23.543v4.122c0,12.979,10.564,23.535,23.535,23.535h21.188
			c12.979,0,23.543-10.556,23.543-23.535v-4.122C290.133,445.764,279.569,435.2,266.598,435.2z M273.067,462.865
			c0,3.567-2.901,6.468-6.468,6.468H245.41c-3.575,0-6.477-2.901-6.477-6.468v-4.122c0-3.575,2.901-6.477,6.477-6.477h21.18
			c3.576,0,6.477,2.901,6.477,6.477V462.865z"/>
	</g>
</g>
<g>
	<g>
		<path d="M370.227,0H141.781c-17.007,0-30.848,13.841-30.848,30.848v450.304c0,17.007,13.841,30.848,30.848,30.848h228.437
			c17.007,0,30.848-13.841,30.848-30.839V30.848C401.067,13.841,387.226,0,370.227,0z M384,481.152
			c0,7.595-6.178,13.781-13.773,13.781H141.781c-7.603,0-13.781-6.187-13.781-13.773V30.848c0-7.595,6.178-13.781,13.781-13.781
			h228.437c7.603,0,13.781,6.187,13.781,13.781V481.152z"/>
	</g>
</g>
<g>
	<g>
		<path d="M392.533,51.2H119.467c-4.71,0-8.533,3.823-8.533,8.533v358.4c0,4.71,3.823,8.533,8.533,8.533h273.067
			c4.71,0,8.533-3.823,8.533-8.533v-358.4C401.067,55.023,397.244,51.2,392.533,51.2z M384,409.6H128V68.267h256V409.6z"/>
	</g>
</symbol>

<symbol id="twitter" viewBox="0 0 512 512">
    <g>
        <path d="M512,97.248c-19.04,8.352-39.328,13.888-60.48,16.576c21.76-12.992,38.368-33.408,46.176-58.016
            c-20.288,12.096-42.688,20.64-66.56,25.408C411.872,60.704,384.416,48,354.464,48c-58.112,0-104.896,47.168-104.896,104.992
            c0,8.32,0.704,16.32,2.432,23.936c-87.264-4.256-164.48-46.08-216.352-109.792c-9.056,15.712-14.368,33.696-14.368,53.056
            c0,36.352,18.72,68.576,46.624,87.232c-16.864-0.32-33.408-5.216-47.424-12.928c0,0.32,0,0.736,0,1.152
            c0,51.008,36.384,93.376,84.096,103.136c-8.544,2.336-17.856,3.456-27.52,3.456c-6.72,0-13.504-0.384-19.872-1.792
            c13.6,41.568,52.192,72.128,98.08,73.12c-35.712,27.936-81.056,44.768-130.144,44.768c-8.608,0-16.864-0.384-25.12-1.44
            C46.496,446.88,101.6,464,161.024,464c193.152,0,298.752-160,298.752-298.688c0-4.64-0.16-9.12-0.384-13.568
            C480.224,136.96,497.728,118.496,512,97.248z"/>
    </g>
</symbol>

<symbol id="linkedin" viewBox="0 0 512 512">
    <g>
		<path d="M426.368,164.128c-1.216-0.384-2.368-0.8-3.648-1.152c-1.536-0.352-3.072-0.64-4.64-0.896
			c-6.08-1.216-12.736-2.08-20.544-2.08c-66.752,0-109.088,48.544-123.04,67.296V160H160v352h114.496V320
			c0,0,86.528-120.512,123.04-32c0,79.008,0,224,0,224H512V274.464C512,221.28,475.552,176.96,426.368,164.128z"/>
	</g>
</symbol>

</svg>